<svg xmlns="http://www.w3.org/2000/svg" viewBox="0 0 512 512"><defs><style>.cls-1{isolation:isolate;}.cls-2{opacity:0.06;mix-blend-mode:multiply;}.cls-3{fill:#fff;}.cls-4{fill:#ffb300;}</style></defs><title>SensorStream</title><g class="cls-1"><g id="Layer_1" data-name="Layer 1"><g class="cls-2"><path d="M257.5,495A232.5,232.5,0,0,1,93.1,98.1,232.5,232.5,0,0,1,421.9,426.9,231,231,0,0,1,257.5,495Z"/><path d="M257.5,46a216.57,216.57,0,0,1,84.26,416A216.56,216.56,0,0,1,173.24,63,215.11,215.11,0,0,1,257.5,46m0-32C120.26,14,9,125.26,9,262.5S120.26,511,257.5,511,506,399.74,506,262.5,394.74,14,257.5,14Z"/></g><path class="cls-3" d="M257.5,482A232.5,232.5,0,0,1,93.1,85.1,232.5,232.5,0,0,1,421.9,413.9,231,231,0,0,1,257.5,482Z"/><path class="cls-4" d="M257.5,33a216.57,216.57,0,0,1,84.26,416A216.56,216.56,0,0,1,173.24,50,215.11,215.11,0,0,1,257.5,33m0-32C120.26,1,9,112.26,9,249.5S120.26,498,257.5,498,506,386.74,506,249.5,394.74,1,257.5,1Z"/><g class="cls-2"><path d="M253.64,142.14a38.45,38.45,0,1,1-28,12,38.29,38.29,0,0,1,28-12m0-32A70.45,70.45,0,1,0,302,129.39a70.25,70.25,0,0,0-48.38-19.25Z"/><path d="M143.63,278.26c23.6,22.07,53.5,37.37,85.62,41.86a162.67,162.67,0,0,0,95-14.88,157.34,157.34,0,0,0,44-32.62c6.51-6.82,7.28-18.78,0-25.46-7-6.47-18.51-7.28-25.46,0-2.35,2.46-4.76,4.86-7.27,7.16q-2.12,1.95-4.32,3.81c-1,.82-5,4-1.93,1.66a140.8,140.8,0,0,1-17.68,11.48q-4.26,2.33-8.68,4.36c-.84.38-1.69.74-2.52,1.13.12-.06,3-1.21,1.12-.48s-3.84,1.52-5.78,2.21a140.79,140.79,0,0,1-19.1,5.33q-2.34.48-4.69.88l-2.69.43c-2.74.45.26-.57.74-.1-.76-.76-8.8.78-10.17.85a141.56,141.56,0,0,1-20.39-.5c-1.71-.17-5.05-.33-1.31-.08a45.44,45.44,0,0,1-4.72-.75q-5.05-.89-10-2.14a143.41,143.41,0,0,1-19.59-6.51c4.24,1.75-1.79-.89-2.67-1.32q-2.52-1.21-5-2.53-5.29-2.81-10.32-6.07-2.39-1.55-4.71-3.19c-1.11-.78-5-3.79-2.11-1.47-3.41-2.73-6.72-5.56-9.91-8.55-6.88-6.43-18.73-7.33-25.46,0-6.41,7-7.35,18.59,0,25.46Z"/><path d="M95.24,329.47c34,32,77.35,53.8,123.71,60.37a233.52,233.52,0,0,0,136.47-21.39A228,228,0,0,0,419.48,321c6.49-6.83,7.29-18.77,0-25.46-7-6.46-18.52-7.29-25.46,0-3.69,3.88-7.5,7.65-11.46,11.25q-3.2,2.92-6.52,5.7l-2.21,1.83c-.63.51-5.58,4.33-2,1.61a216.59,216.59,0,0,1-26.59,17.25q-6.41,3.5-13.05,6.55c-1.26.58-2.53,1.13-3.79,1.7-4.29,1.92,3.58-1.37-.8.33-2.57,1-5.13,2-7.73,2.95a210.79,210.79,0,0,1-30.37,8.41q-3.35.66-6.72,1.22c-1.35.22-2.7.42-4,.63-4.45.69,2.91-.3.05,0-5.21.53-10.39,1.08-15.62,1.32a212.36,212.36,0,0,1-31.33-.82c-1-.1-8.5-.78-3.35-.33-2.7-.23-5.43-.81-8.1-1.29q-7.42-1.33-14.74-3.19t-14.53-4.26q-3.94-1.31-7.82-2.77l-2.59-1c-.82-.32-6.49-2.75-2.12-.83a219.18,219.18,0,0,1-30.94-16.52q-3.89-2.52-7.67-5.2-1.46-1-2.9-2.1l-2.3-1.72q2.6,2,.22.17c-4.93-4-9.72-8.07-14.33-12.4-6.87-6.45-18.74-7.32-25.46,0-6.42,7-7.33,18.57,0,25.46Z"/></g><path class="cls-4" d="M253.64,129.14a38.45,38.45,0,1,1-28,12,38.29,38.29,0,0,1,28-12m0-32A70.45,70.45,0,1,0,302,116.39a70.25,70.25,0,0,0-48.38-19.25Z"/><path class="cls-4" d="M143.63,265.26c23.6,22.07,53.5,37.37,85.62,41.86a162.67,162.67,0,0,0,95-14.88,157.34,157.34,0,0,0,44-32.62c6.51-6.82,7.28-18.78,0-25.46-7-6.47-18.51-7.28-25.46,0-2.35,2.46-4.76,4.86-7.27,7.16q-2.12,1.95-4.32,3.81c-1,.82-5,4-1.93,1.66a140.8,140.8,0,0,1-17.68,11.48q-4.26,2.33-8.68,4.36c-.84.38-1.69.74-2.52,1.13.12-.06,3-1.21,1.12-.48s-3.84,1.52-5.78,2.21a140.79,140.79,0,0,1-19.1,5.33q-2.34.48-4.69.88l-2.69.43c-2.74.45.26-.57.74-.1-.76-.76-8.8.78-10.17.85a141.56,141.56,0,0,1-20.39-.5c-1.71-.17-5.05-.33-1.31-.08a45.44,45.44,0,0,1-4.72-.75q-5.05-.89-10-2.14a143.41,143.41,0,0,1-19.59-6.51c4.24,1.75-1.79-.89-2.67-1.32q-2.52-1.21-5-2.53-5.29-2.81-10.32-6.07-2.39-1.55-4.71-3.19c-1.11-.78-5-3.79-2.11-1.47-3.41-2.73-6.72-5.56-9.91-8.55-6.88-6.43-18.73-7.33-25.46,0-6.41,7-7.35,18.59,0,25.46Z"/><path class="cls-4" d="M95.24,316.47c34,32,77.35,53.8,123.71,60.37a233.52,233.52,0,0,0,136.47-21.39A228,228,0,0,0,419.48,308c6.49-6.83,7.29-18.77,0-25.46-7-6.46-18.52-7.29-25.46,0-3.69,3.88-7.5,7.65-11.46,11.25q-3.2,2.92-6.52,5.7l-2.21,1.83c-.63.51-5.58,4.33-2,1.61a216.59,216.59,0,0,1-26.59,17.25q-6.41,3.5-13.05,6.55c-1.26.58-2.53,1.13-3.79,1.7-4.29,1.92,3.58-1.37-.8.33-2.57,1-5.13,2-7.73,2.95a210.79,210.79,0,0,1-30.37,8.41q-3.35.66-6.72,1.22c-1.35.22-2.7.42-4,.63-4.45.69,2.91-.3.05,0-5.21.53-10.39,1.08-15.62,1.32a212.36,212.36,0,0,1-31.33-.82c-1-.1-8.5-.78-3.35-.33-2.7-.23-5.43-.81-8.1-1.29q-7.42-1.33-14.74-3.19t-14.53-4.26q-3.94-1.31-7.82-2.77l-2.59-1c-.82-.32-6.49-2.75-2.12-.83a219.18,219.18,0,0,1-30.94-16.52q-3.89-2.52-7.67-5.2-1.46-1-2.9-2.1l-2.3-1.72q2.6,2,.22.17c-4.93-4-9.72-8.07-14.33-12.4-6.87-6.45-18.74-7.32-25.46,0-6.42,7-7.33,18.57,0,25.46Z"/></g></g></svg>