<svg xmlns="http://www.w3.org/2000/svg" viewBox="0 0 512 512"><defs><style>.cls-1{isolation:isolate;}.cls-2{opacity:0.06;mix-blend-mode:multiply;}.cls-3{fill:#fff;}.cls-4{fill:#ffb300;}</style></defs><title>SensorStreamer</title><g class="cls-1"><g id="Layer_1" data-name="Layer 1"><g class="cls-2"><path d="M256,480A215.5,215.5,0,0,1,103.62,112.12,215.5,215.5,0,0,1,408.38,416.88,214.09,214.09,0,0,1,256,480Z"/><path d="M256,65a199.5,199.5,0,1,1-141.07,58.43A198.19,198.19,0,0,1,256,65m0-32C128.15,33,24.5,136.65,24.5,264.5S128.15,496,256,496,487.5,392.35,487.5,264.5,383.85,33,256,33Z"/></g><path class="cls-3" d="M256,467A215.5,215.5,0,0,1,103.62,99.12,215.5,215.5,0,0,1,408.38,403.88,214.09,214.09,0,0,1,256,467Z"/><path class="cls-4" d="M256,52A199.5,199.5,0,0,1,397.07,392.57,199.5,199.5,0,1,1,114.93,110.43,198.19,198.19,0,0,1,256,52m0-32C128.15,20,24.5,123.65,24.5,251.5S128.15,483,256,483,487.5,379.35,487.5,251.5,383.85,20,256,20Z"/><g class="cls-2"><path d="M253.74,148.53a35.54,35.54,0,1,1-25.84,11.13,35.38,35.38,0,0,1,25.84-11.13m0-32A67.54,67.54,0,1,0,300.11,135a67.34,67.34,0,0,0-46.37-18.45Z"/><path d="M147.75,278.22c22.64,21.17,51.27,35.87,82.07,40.27a156.72,156.72,0,0,0,91.89-14.25,151.47,151.47,0,0,0,42.44-31.43c6.51-6.81,7.28-18.78,0-25.46-7-6.47-18.51-7.27-25.46,0a147.24,147.24,0,0,1-15,13.67c3.22-2.55-.71.46-1.49,1q-2,1.43-4.09,2.79-4.4,2.89-9,5.42-4.27,2.34-8.7,4.37c-.63.29-1.27.55-1.9.85.12-.06,3-1.21,1.11-.47-1.71.67-3.42,1.36-5.15,2a134.62,134.62,0,0,1-19.14,5.37q-2.35.47-4.71.86c-.69.11-4.88.61-2.34.37l-3,.28q-2.72.24-5.44.37a135.36,135.36,0,0,1-19.08-.42c-.57-.05-5.66-.63-3-.3s-2.3-.38-3-.51q-5.07-.89-10.06-2.16-4.67-1.19-9.25-2.71-2-.65-3.92-1.37-1.3-.48-2.59-1c-.41-.16-3.27-1.32-1.07-.4s-.5-.23-1-.48q-1.27-.58-2.53-1.18-2.53-1.21-5-2.52-5-2.65-9.75-5.7-2.4-1.54-4.73-3.19L183,261.09s-3.57-2.75-1.62-1.2c1.7,1.36-.2-.18-.45-.39-.93-.78-1.87-1.54-2.79-2.33-1.67-1.43-3.29-2.91-4.9-4.41-6.88-6.43-18.73-7.33-25.46,0-6.41,7-7.35,18.59,0,25.46Z"/><path d="M101.37,327.31c32.88,30.85,74.69,51.88,119.47,58.14A224.59,224.59,0,0,0,352,364.62a219.32,219.32,0,0,0,61.22-45.42c6.5-6.83,7.28-18.77,0-25.46-7-6.46-18.52-7.29-25.46,0-3.69,3.88-7.5,7.64-11.48,11.24q-2.68,2.42-5.44,4.75-1.37,1.16-2.77,2.29c-.68.56-4.89,3.79-1.41,1.17a207.33,207.33,0,0,1-25.42,16.49q-6.41,3.51-13.07,6.54c-1.05.48-2.12.93-3.17,1.41-2.59,1.18,4-1.59-.16.07-2.57,1-5.13,2-7.73,3a202,202,0,0,1-29.06,8.06q-3.35.66-6.73,1.22c-1.12.18-2.25.34-3.38.52-2.83.47,4.53-.51,0,0-5,.56-9.95,1-15,1.28a203.57,203.57,0,0,1-30-.76c-1-.1-8.5-.74-3.36-.33-2.26-.18-4.53-.68-6.76-1.07q-7.77-1.36-15.42-3.32-7-1.8-13.87-4.09-3.28-1.1-6.52-2.31-1.95-.73-3.88-1.49c-.93-.37-4.87-2.06-.84-.31a207.1,207.1,0,0,1-29.73-15.84q-3.6-2.32-7.09-4.79-1.76-1.24-3.49-2.52c-1.23-.91-3.37-2.59-.94-.68q-7.44-5.89-14.36-12.37c-6.87-6.45-18.74-7.32-25.46,0-6.42,7-7.33,18.57,0,25.46Z"/></g><path class="cls-4" d="M253.74,135.53a35.54,35.54,0,1,1-25.84,11.13,35.38,35.38,0,0,1,25.84-11.13m0-32A67.54,67.54,0,1,0,300.11,122a67.34,67.34,0,0,0-46.37-18.45Z"/><path class="cls-4" d="M147.75,265.22c22.64,21.17,51.27,35.87,82.07,40.27a156.72,156.72,0,0,0,91.89-14.25,151.47,151.47,0,0,0,42.44-31.43c6.51-6.81,7.28-18.78,0-25.46-7-6.47-18.51-7.27-25.46,0a147.24,147.24,0,0,1-15,13.67c3.22-2.55-.71.46-1.49,1q-2,1.43-4.09,2.79-4.4,2.89-9,5.42-4.27,2.34-8.7,4.37c-.63.29-1.27.55-1.9.85.12-.06,3-1.21,1.11-.47-1.71.67-3.42,1.36-5.15,2a134.62,134.62,0,0,1-19.14,5.37q-2.35.47-4.71.86c-.69.11-4.88.61-2.34.37l-3,.28q-2.72.24-5.44.37a135.36,135.36,0,0,1-19.08-.42c-.57-.05-5.66-.63-3-.3s-2.3-.38-3-.51q-5.07-.89-10.06-2.16-4.67-1.19-9.25-2.71-2-.65-3.92-1.37-1.3-.48-2.59-1c-.41-.16-3.27-1.32-1.07-.4s-.5-.23-1-.48q-1.27-.58-2.53-1.18-2.53-1.21-5-2.52-5-2.65-9.75-5.7-2.4-1.54-4.73-3.19L183,248.09s-3.57-2.75-1.62-1.2c1.7,1.36-.2-.18-.45-.39-.93-.78-1.87-1.54-2.79-2.33-1.67-1.43-3.29-2.91-4.9-4.41-6.88-6.43-18.73-7.33-25.46,0-6.41,7-7.35,18.59,0,25.46Z"/><path class="cls-4" d="M101.37,314.31c32.88,30.85,74.69,51.88,119.47,58.14A224.59,224.59,0,0,0,352,351.62a219.32,219.32,0,0,0,61.22-45.42c6.5-6.83,7.28-18.77,0-25.46-7-6.46-18.52-7.29-25.46,0-3.69,3.88-7.5,7.64-11.48,11.24q-2.68,2.42-5.44,4.75-1.37,1.16-2.77,2.29c-.68.56-4.89,3.79-1.41,1.17a207.33,207.33,0,0,1-25.42,16.49q-6.41,3.51-13.07,6.54c-1.05.48-2.12.93-3.17,1.41-2.59,1.18,4-1.59-.16.07-2.57,1-5.13,2-7.73,3a202,202,0,0,1-29.06,8.06q-3.35.66-6.73,1.22c-1.12.18-2.25.34-3.38.52-2.83.47,4.53-.51,0,0-5,.56-9.95,1-15,1.28a203.57,203.57,0,0,1-30-.76c-1-.1-8.5-.74-3.36-.33-2.26-.18-4.53-.68-6.76-1.07q-7.77-1.36-15.42-3.32-7-1.8-13.87-4.09-3.28-1.1-6.52-2.31-1.95-.73-3.88-1.49c-.93-.37-4.87-2.06-.84-.31a207.1,207.1,0,0,1-29.73-15.84q-3.6-2.32-7.09-4.79-1.76-1.24-3.49-2.52c-1.23-.91-3.37-2.59-.94-.68q-7.44-5.89-14.36-12.37c-6.87-6.45-18.74-7.32-25.46,0-6.42,7-7.33,18.57,0,25.46Z"/></g></g></svg>